<svg xmlns="http://www.w3.org/2000/svg" viewBox="0 0 1279 240.98"><defs><style>.cls-1{opacity:0.64;}.cls-2{fill:#0071bc;}</style></defs><g id="Слой_2" data-name="Слой 2"><g id="Слой_1-2" data-name="Слой 1"><g class="cls-1"><path class="cls-2" d="M0,127.36a52.82,52.82,0,0,0,2.28,6.47,15.5,15.5,0,0,0,3.78,5.63,4.53,4.53,0,0,0,3.13,1.11,6.23,6.23,0,0,0,3.12-1.23A22.41,22.41,0,0,0,17,134.4a99,99,0,0,0,7-11.75c2.13-4.05,4.14-8.16,6.14-12.27,4-8.22,7.93-16.5,12.42-24.49A104.8,104.8,0,0,1,50,74.3a44.05,44.05,0,0,1,4.53-5.21,19.67,19.67,0,0,1,5.69-4C68.75,61.77,77.08,58,85.69,54.81a127.48,127.48,0,0,1,13.13-4.16c2.23-.56,4.47-1.07,6.74-1.48,1.11-.21,2.33-.35,3.28-.64a14.56,14.56,0,0,0,2.93-1.46c3.8-2.4,7.19-5.53,11.06-8.1a20.3,20.3,0,0,1,3.11-1.72,7.87,7.87,0,0,1,1.78-.56c.61-.11,1.18-.17,1.77-.22a40.61,40.61,0,0,1,7,.12c4.6.41,9.12,1.2,13.63,1.58a40.68,40.68,0,0,0,6.71.07,20.78,20.78,0,0,0,3.25-.53c1-.26,2.16-.64,3.24-1,8.75-2.65,17.5-5.47,26.55-7.3s18.45-2.61,27.64-.81a52.82,52.82,0,0,1,13.23,4.42c.54.24,1,.52,1.56.79l.77.41.71.36a3.1,3.1,0,0,0,2.55.05c1.81-.72,3.46-2.38,5.22-3.86a23.39,23.39,0,0,1,2.88-2.14A9.11,9.11,0,0,1,248,27.36a23.21,23.21,0,0,1,7.13.38c4.58.86,8.94,2.45,13.28,2.47a12.05,12.05,0,0,0,3.13-.41,9.43,9.43,0,0,0,1.46-.53,6.47,6.47,0,0,0,.69-.36l.78-.44a4.13,4.13,0,0,1,2.18-.45,5.79,5.79,0,0,1,2,.53,16.54,16.54,0,0,1,3.08,2c.93.71,1.8,1.44,2.69,2.08a12.92,12.92,0,0,0,1.35.88c.23.13.44.24.68.35l.77.33a39,39,0,0,0,6.36,2.05A64.44,64.44,0,0,0,307,37.71l1.7,0h1.27l.16,0a5.3,5.3,0,0,0,1.25-.64,14.12,14.12,0,0,0,1.26-1A25.12,25.12,0,0,0,317,31.13a32.56,32.56,0,0,0,1.73-2.84c.53-1,1-2,1.52-3a27.46,27.46,0,0,1,3.84-6,6.81,6.81,0,0,1,3.31-2.16,4.68,4.68,0,0,1,2.17,0,6.34,6.34,0,0,1,1.86.8,13.43,13.43,0,0,1,2.79,2.43,30.36,30.36,0,0,1,2.2,2.77c.69.95,1.33,1.92,1.95,2.9l.46.73c.15.25.28.42.45.67l1,1.41,3.94,5.62,3.91,5.65L350,42.91c.65,1,1.26,1.86,1.9,3l0,.05,0,.08c.83,2.4,1.7,4.78,2.7,7.1.5,1.15,1,2.28,1.63,3.36a11.87,11.87,0,0,0,2,2.85,2,2,0,0,0,2.43.49,18.7,18.7,0,0,0,3-2.05,14.55,14.55,0,0,1,3.51-2.11,8.37,8.37,0,0,1,4.26-.53,13.64,13.64,0,0,1,3.9,1.27l3.52,1.51c2.35,1,4.7,2,7.07,2.94,4.73,1.89,9.5,3.67,14.37,5.1,2.44.73,4.87,1.35,7.37,1.93A27.78,27.78,0,0,1,415,71,138.11,138.11,0,0,1,427.63,80c4.08,3.06,8.16,6.14,12.64,8.31a19.37,19.37,0,0,0,7,2.06,55.8,55.8,0,0,0,7.5-.3c10.06-1,19.8-4.21,29.38-7.69s19.15-7.32,29.18-9.84a81.39,81.39,0,0,1,15.32-2.44c5.17-.22,10.23-.28,15.31-.69a88.69,88.69,0,0,0,15-2.3c4.89-1.24,9.65-3.06,14.48-4.78,9.62-3.55,19.93-6.06,30.39-5.5A42.27,42.27,0,0,1,619,60.38c4.85,2.16,8.82,5.58,13.34,7.52l.85.35a3.11,3.11,0,0,1,.62.33,4.39,4.39,0,0,1,.45.34,19.87,19.87,0,0,1,1.49,1.35c.94.92,1.82,1.85,2.7,2.8,1.76,1.88,3.47,3.79,5.16,5.71,3.4,3.84,6.74,7.72,10.07,11.61l19.88,23.4c6.63,7.8,13.24,15.61,20,23.29,1.69,1.92,3.39,3.83,5.11,5.7.86.93,1.73,1.86,2.62,2.75.44.45.89.88,1.34,1.29a8.18,8.18,0,0,0,.64.52.82.82,0,0,0,.23.13l.45.17a115.55,115.55,0,0,0,14.45,4.72,75.88,75.88,0,0,0,14.95,2.26,51.35,51.35,0,0,0,14.94-1.45A42.28,42.28,0,0,0,761.83,147a50.29,50.29,0,0,0,10.89-10.32c6.27-7.91,10.62-17.23,14-26.78a224.32,224.32,0,0,0,7.93-29.5c2.07-10,3.72-20.08,5.39-30.18S803.35,30,806,20a75.8,75.8,0,0,1,2.38-7.4,32.71,32.71,0,0,1,3.61-7,14.65,14.65,0,0,1,2.77-3A9.91,9.91,0,0,1,818.54.63a9.62,9.62,0,0,1,2.13-.26c.71,0,1.3,0,2,0q1.93.06,3.87.21a71.57,71.57,0,0,1,15.32,2.59,39.75,39.75,0,0,1,13.93,7.1,45,45,0,0,1,10.08,11.93A140.32,140.32,0,0,1,872.91,36c4.29,9.31,8.52,18.59,13.64,27.4q3.83,6.6,8.19,12.87c3.06,4.16,5.56,8.7,8.31,13a73.83,73.83,0,0,0,4.36,6.19,24.22,24.22,0,0,0,5.26,5.11,9.58,9.58,0,0,0,1.53.85l1.76.78,3.5,1.62,6.92,3.36c18.36,9.07,36.54,18.5,54.65,28s36.14,19.26,54,29.21,35.69,20.09,53,31.08c4.32,2.76,8.6,5.59,12.78,8.6,2.09,1.51,4.15,3.06,6.13,4.75a36.6,36.6,0,0,1,2.87,2.72,13.35,13.35,0,0,1,1.3,1.62,5.65,5.65,0,0,1,.55,1,3.12,3.12,0,0,1,.2.61,3.07,3.07,0,0,1,.08.7,74.27,74.27,0,0,1-1.36,15.48,19,19,0,0,1-3.11,7.44,6.53,6.53,0,0,1-3.67,2.46,6.91,6.91,0,0,1-4.36-.57,19.69,19.69,0,0,1-6.28-5,51.66,51.66,0,0,1-4.7-6.26,98.4,98.4,0,0,1-7.22-13.7,145.67,145.67,0,0,1-9.2-29.46,119.93,119.93,0,0,1-2.37-30.78,79.17,79.17,0,0,1,2.42-15.34,56.67,56.67,0,0,1,5.93-14.4,45.94,45.94,0,0,1,10.1-11.91,48.41,48.41,0,0,1,13.5-7.83,65.33,65.33,0,0,1,15.11-3.71c1.28-.14,2.57-.3,3.86-.38a10.55,10.55,0,0,1,4.22.16,2.74,2.74,0,0,1,1.24.83,2.31,2.31,0,0,1,.5,1.56,5,5,0,0,1-.78,2.26,19.06,19.06,0,0,1-2.5,3.19,101,101,0,0,1-11.76,10.1c-4.11,3.1-8.31,6.05-12.56,8.92-8.51,5.73-17.23,11.14-26.07,16.33a494.84,494.84,0,0,1-54.77,28,216.38,216.38,0,0,1-29,10.29,81,81,0,0,1-15.3,2.66,34.2,34.2,0,0,1-7.88-.33,15.52,15.52,0,0,1-7.45-3.2,11.64,11.64,0,0,1-3.92-7.2,23.19,23.19,0,0,1,.25-8c.24-1.29.54-2.57.9-3.82l.27-.94a3.29,3.29,0,0,1,.25-.6l.22-.43.88-1.72,3.58-6.8c4.85-9,9.89-18,15.22-26.73a264.24,264.24,0,0,1,17.29-25.49,69.59,69.59,0,0,1,10.72-11.27,22.2,22.2,0,0,1,3.37-2.2,22.51,22.51,0,0,1,3.72-1.48,72.28,72.28,0,0,1,7.56-1.83c10.13-1.92,20.3-3,30.38-4.66a134.85,134.85,0,0,0,14.9-3.11,31.22,31.22,0,0,0,6.88-2.72A7.75,7.75,0,0,0,1073.5,71a2.92,2.92,0,0,0,.3-2.78,8.67,8.67,0,0,0-1.91-2.81,23.89,23.89,0,0,0-2.77-2.42,57.53,57.53,0,0,0-6.34-4.07c-4.52-2.38-9-5.49-12.21-9.77a21.7,21.7,0,0,1-4.38-15.08,29.67,29.67,0,0,1,3.54-11.34,18.29,18.29,0,0,1,2.5-3.21,28.31,28.31,0,0,1,6.35-4.75,51.2,51.2,0,0,1,7.09-3.3,102.66,102.66,0,0,1,14.88-4.3,247.69,247.69,0,0,1,30.5-4.34c10.22-.91,20.46-1.4,30.69-1.81,2.55-.11,5.11-.22,7.65-.37,1.27-.08,2.52-.16,3.74-.33a37.17,37.17,0,0,1,3.93-.32,36,36,0,0,1,15.37,3,50.9,50.9,0,0,1,13.09,8.48,88,88,0,0,1,10.65,11.28,149.4,149.4,0,0,1,9,12.57c2.8,4.32,5.41,8.75,7.89,13.24,9.87,18,18,36.82,27.18,55.1,4.6,9.12,9.38,18.19,15.23,26.57a65.91,65.91,0,0,0,10,11.55c3.8,3.35,8.42,6.08,13.57,6.54-5.16-.37-9.86-3-13.73-6.35A65.89,65.89,0,0,1,1255,130.57c-6-8.33-11-17.34-15.72-26.41-9.46-18.17-18-36.82-28-54.58-5-8.87-10.31-17.62-16.67-25.54a86.14,86.14,0,0,0-10.4-11,48.86,48.86,0,0,0-12.57-8.15A34.27,34.27,0,0,0,1157.12,2a35.88,35.88,0,0,0-3.72.31c-1.3.18-2.61.27-3.89.35-2.57.15-5.13.25-7.69.36-10.22.42-20.43.91-30.6,1.81A247.48,247.48,0,0,0,1081,9.14a101.54,101.54,0,0,0-14.59,4.22,50.21,50.21,0,0,0-6.81,3.17,26.59,26.59,0,0,0-5.91,4.4,17.2,17.2,0,0,0-2.21,2.84,26.78,26.78,0,0,0-1.54,3.33,25.92,25.92,0,0,0-1.73,7.16,19.62,19.62,0,0,0,4,13.71,26.89,26.89,0,0,0,5.22,5.22,45.14,45.14,0,0,0,6.37,4,58,58,0,0,1,6.56,4.22,25.56,25.56,0,0,1,3,2.63,10.51,10.51,0,0,1,2.35,3.51,5.18,5.18,0,0,1,.31,2.33,5,5,0,0,1-.81,2.22,9.67,9.67,0,0,1-3.2,2.82,32.84,32.84,0,0,1-7.35,2.92A132.92,132.92,0,0,1,1049.5,81c-10.13,1.66-20.33,2.75-30.32,4.65a71.39,71.39,0,0,0-7.34,1.78,20.52,20.52,0,0,0-3.41,1.35,20.24,20.24,0,0,0-3,2A67.74,67.74,0,0,0,995,101.72,261.1,261.1,0,0,0,977.85,127c-5.31,8.73-10.33,17.63-15.16,26.64l-3.58,6.77-.87,1.7-.22.43c-.12.27-.07.09-.12.28l-.26.9c-.34,1.21-.63,2.42-.86,3.64a21.6,21.6,0,0,0-.24,7.29,9.75,9.75,0,0,0,3.24,6,13.62,13.62,0,0,0,6.5,2.75,33.45,33.45,0,0,0,7.43.31,80.36,80.36,0,0,0,14.9-2.61,212.13,212.13,0,0,0,28.78-10.19,494.3,494.3,0,0,0,54.54-27.84c8.81-5.17,17.49-10.56,26-16.26,4.23-2.86,8.41-5.79,12.47-8.86a98.41,98.41,0,0,0,11.51-9.87,17.52,17.52,0,0,0,2.23-2.83,3.17,3.17,0,0,0,.51-1.32c0-.15,0-.19,0-.23a.82.82,0,0,0-.35-.2,9.48,9.48,0,0,0-3.4-.06c-1.26.08-2.52.24-3.77.38a63.17,63.17,0,0,0-14.64,3.58,46.4,46.4,0,0,0-12.94,7.51,44.05,44.05,0,0,0-9.66,11.4c-5.14,8.65-7.43,18.77-8.08,28.83a118.45,118.45,0,0,0,2.34,30.27,144,144,0,0,0,9.07,29,97.47,97.47,0,0,0,7.07,13.42,49.6,49.6,0,0,0,4.51,6,17.77,17.77,0,0,0,5.6,4.52,4.94,4.94,0,0,0,3.11.45,4.53,4.53,0,0,0,2.55-1.76,17.21,17.21,0,0,0,2.72-6.63,72.31,72.31,0,0,0,1.31-15,2.36,2.36,0,0,0-.5-1.22,11.3,11.3,0,0,0-1.1-1.36,31.45,31.45,0,0,0-2.71-2.56c-1.9-1.63-3.94-3.16-6-4.65-4.13-3-8.39-5.79-12.69-8.54-17.25-10.93-35.06-21-52.91-31s-35.9-19.65-54-29.19-36.27-19-54.6-28l-6.9-3.34L915.14,104l-1.76-.77a12.73,12.73,0,0,1-1.81-1,25.93,25.93,0,0,1-5.72-5.53,74.47,74.47,0,0,1-4.48-6.36c-2.81-4.34-5.25-8.78-8.27-12.88s-5.7-8.57-8.28-13c-5.17-8.9-9.45-18.28-13.72-27.55a137.16,137.16,0,0,0-7-13.54,42.7,42.7,0,0,0-9.62-11.41,37.82,37.82,0,0,0-13.25-6.75,70.24,70.24,0,0,0-14.89-2.51c-1.27-.09-2.53-.16-3.8-.2-.62,0-1.3-.06-1.87,0a7.2,7.2,0,0,0-1.67.2,9.83,9.83,0,0,0-5.4,4.17,30.32,30.32,0,0,0-3.37,6.59,73,73,0,0,0-2.32,7.21c-2.61,9.81-4.19,19.93-5.89,30s-3.33,20.21-5.41,30.26a227,227,0,0,1-8,29.76c-3.46,9.68-7.88,19.18-14.34,27.36A52.67,52.67,0,0,1,763,148.65a44.32,44.32,0,0,1-14.22,6.45,52.67,52.67,0,0,1-15.51,1.51,77,77,0,0,1-15.35-2.31,115.91,115.91,0,0,1-14.71-4.8l-.45-.18a2.43,2.43,0,0,1-.61-.33,7.9,7.9,0,0,1-.85-.68c-.5-.45-1-.91-1.43-1.37-.92-.92-1.8-1.86-2.67-2.81q-2.61-2.83-5.14-5.73c-6.76-7.7-13.38-15.51-20-23.31l-19.88-23.4c-3.32-3.88-6.66-7.76-10-11.58-1.7-1.92-3.4-3.82-5.13-5.68-.87-.93-1.74-1.85-2.64-2.73-.44-.43-.9-.87-1.34-1.22a2,2,0,0,0-.31-.24.91.91,0,0,0-.22-.13c-.31-.12-.63-.24-.93-.37-4.9-2.14-8.84-5.55-13.38-7.54a40.28,40.28,0,0,0-14.49-3.42,61.2,61.2,0,0,0-15,1.17,96.64,96.64,0,0,0-14.59,4.21c-4.8,1.72-9.62,3.56-14.66,4.84a90.8,90.8,0,0,1-15.32,2.35c-5.13.42-10.31.48-15.36.69a80.15,80.15,0,0,0-15,2.39c-9.85,2.47-19.34,6.29-29,9.78S465.28,91,454.92,92a56.41,56.41,0,0,1-7.83.31,21.49,21.49,0,0,1-7.68-2.25c-4.75-2.31-8.88-5.45-13-8.52A135.45,135.45,0,0,0,414,72.75a26.36,26.36,0,0,0-6.75-2.91c-2.49-.57-5-1.21-7.48-2-4.95-1.46-9.78-3.26-14.55-5.17-2.38-.95-4.75-1.95-7.1-2.95l-3.53-1.51a11.74,11.74,0,0,0-3.37-1.13,6.32,6.32,0,0,0-3.27.41,12.73,12.73,0,0,0-3,1.84,20,20,0,0,1-3.35,2.29,4,4,0,0,1-2.49.33A4.62,4.62,0,0,1,357,60.82a13.52,13.52,0,0,1-2.43-3.35c-.64-1.16-1.2-2.35-1.72-3.54-1-2.39-1.91-4.81-2.76-7.24l.06.12c-.48-.85-1.17-1.86-1.78-2.78L346.4,41.2l-3.9-5.64-3.93-5.62-1-1.41c-.15-.22-.35-.52-.5-.76l-.45-.71c-.6-1-1.23-1.9-1.88-2.8a17.84,17.84,0,0,0-4.42-4.67,3.26,3.26,0,0,0-2.51-.56,5,5,0,0,0-2.31,1.58A25.75,25.75,0,0,0,322,26.15c-.51,1-1,2.05-1.56,3.09a34.15,34.15,0,0,1-1.83,3,27.61,27.61,0,0,1-4.69,5.34,14.74,14.74,0,0,1-1.46,1.11,7,7,0,0,1-1.8.9,2.45,2.45,0,0,1-.69.12h-1.3l-1.73,0a66.61,66.61,0,0,1-13.82-1.56A41.3,41.3,0,0,1,286.43,36l-.81-.35c-.28-.12-.58-.28-.85-.43a16.8,16.8,0,0,1-1.53-1c-1-.69-1.85-1.43-2.74-2.11a13.75,13.75,0,0,0-2.68-1.72,2.69,2.69,0,0,0-2.44-.13l-.71.41c-.27.16-.55.29-.84.43a11.92,11.92,0,0,1-1.76.64,13.81,13.81,0,0,1-3.65.48c-4.87-.05-9.26-1.71-13.66-2.5a21.12,21.12,0,0,0-6.51-.37c-1.94.23-3.72,1.56-5.42,3-.86.72-1.71,1.5-2.64,2.24a12.05,12.05,0,0,1-3.17,2,5.48,5.48,0,0,1-2,.38,5.11,5.11,0,0,1-2.06-.49c-.33-.15-.59-.29-.83-.42l-.74-.39c-.5-.26-1-.53-1.5-.76a51.86,51.86,0,0,0-6.23-2.55,55.54,55.54,0,0,0-6.51-1.69c-8.84-1.69-18-1-26.87.79s-17.65,4.46-26.43,7c-1.12.32-2.15.65-3.34.95a22.36,22.36,0,0,1-3.52.54,41.87,41.87,0,0,1-7-.14c-4.6-.43-9.11-1.27-13.62-1.71a39.84,39.84,0,0,0-6.72-.18c-.55,0-1.12.1-1.64.19a6.66,6.66,0,0,0-1.49.45,19,19,0,0,0-2.89,1.58c-3.78,2.45-7.19,5.54-11.16,8a16.42,16.42,0,0,1-3.21,1.55,32.81,32.81,0,0,1-3.45.65c-2.24.39-4.47.87-6.68,1.4a127.67,127.67,0,0,0-13.06,4c-8.58,3.09-17,6.79-25.53,10A19,19,0,0,0,55,69.58a43.86,43.86,0,0,0-4.5,5.11,104.55,104.55,0,0,0-7.43,11.47c-4.53,7.94-8.51,16.19-12.57,24.38-2,4.1-4.07,8.2-6.23,12.24a96.72,96.72,0,0,1-7.14,11.72,21.88,21.88,0,0,1-4.75,4.95,6.27,6.27,0,0,1-3.19,1.23A4.62,4.62,0,0,1,6,139.53a15.51,15.51,0,0,1-3.76-5.69A52.76,52.76,0,0,1,0,127.36Z"/></g></g></g></svg>